<svg width="31" height="33" viewBox="0 0 31 33" fill="none" xmlns="http://www.w3.org/2000/svg">
<path d="M4.63093 0.0893326C3.48779 0.314617 2.58501 0.815254 1.7174 1.70388C1.06669 2.37348 0.580125 3.18076 0.298738 4.04435C-0.00609832 5.01433 -0.000236099 4.70144 -0.000236099 16.0158C-0.000236099 27.3302 -0.00609832 27.0173 0.298738 27.9872C0.843925 29.6831 2.20396 31.135 3.79263 31.717C4.58989 32.0048 5.00025 32.0361 7.87274 32.0361C10.4404 32.0361 10.587 32.0299 10.8097 31.911C11.2904 31.6607 11.3256 31.4854 11.2787 29.2701L11.2377 27.4678L10.9973 27.5179C10.8625 27.5429 10.2821 27.5617 9.70176 27.5617C8.20689 27.5554 7.6148 27.3677 6.91134 26.6668C6.53029 26.2913 6.49512 26.2288 6.11993 25.3526C5.68613 24.3326 5.10577 23.5378 4.58989 23.2562C4.36126 23.1248 3.98608 22.668 3.98608 22.5115C3.98608 22.2675 4.67196 22.1924 5.1937 22.3801C5.91476 22.643 6.48926 23.1499 6.99927 23.9822C7.65584 25.0398 8.39448 25.5842 9.25623 25.6405C9.77797 25.6718 10.3994 25.5779 10.927 25.3965L11.308 25.265L11.4018 24.7957C11.5132 24.2638 11.818 23.5879 12.0877 23.3L12.2636 23.0998L12.0936 23.0685C12.0056 23.0497 11.8004 23.0184 11.6363 22.9934C9.89521 22.7681 8.19516 21.9671 7.23376 20.9283C6.64754 20.29 6.2489 19.5828 5.92062 18.5503C5.56888 17.4864 5.48681 16.8731 5.48681 15.3587C5.48681 14.032 5.49268 13.9632 5.64509 13.4188C5.91476 12.4801 6.34856 11.6227 6.80582 11.1033L6.96996 10.9156L6.85858 10.5151C6.68271 9.92056 6.61822 9.13206 6.68271 8.47498C6.71788 8.16834 6.75306 7.86796 6.77064 7.81789C6.78237 7.76783 6.85858 7.47996 6.94065 7.17958C7.09307 6.64766 7.09893 6.63514 7.30411 6.59134C7.8786 6.47869 9.5552 7.13578 10.8273 7.98686L11.2494 8.26846L11.7946 8.13705C13.0725 7.84292 13.7819 7.75531 15.0071 7.75531C16.2323 7.75531 16.9416 7.84292 18.2196 8.13705L18.7648 8.26846L19.1869 7.99311C20.5996 7.06694 22.0183 6.49121 22.6338 6.59134L22.9035 6.63514L23.0618 7.17958C23.2963 8.01815 23.3432 8.39988 23.3139 9.28851C23.2963 9.88301 23.2552 10.2084 23.1673 10.5088L23.0442 10.9156L23.2083 11.1033C23.6715 11.629 24.1053 12.4988 24.3632 13.4188C24.4922 13.8881 24.5215 14.1447 24.5449 14.9582C24.627 17.5052 23.9822 19.6642 22.7628 20.9345C21.7838 21.9546 20.3945 22.6367 18.7003 22.9308C18.3955 22.9809 18.0554 23.0435 17.9499 23.0622L17.7565 23.0935L17.9558 23.3376C18.243 23.7006 18.4541 24.1386 18.5948 24.6956C18.712 25.1524 18.7237 25.3714 18.753 28.3439C18.7941 31.9673 18.7648 31.7733 19.2982 31.9423C19.5503 32.0174 20.031 32.0361 22.2235 32.0361C25.008 32.0361 25.4301 32.0048 26.2215 31.717C27.8043 31.135 29.1702 29.6769 29.7154 27.9872C30.0203 27.0173 30.0144 27.3302 30.0144 16.0158C30.0144 4.70144 30.0203 5.01433 29.7154 4.04435C29.1702 2.34845 27.8102 0.896606 26.2215 0.314617C25.3129 -0.0107956 25.6177 -0.00453568 14.9543 0.00172043C6.9172 0.00798035 4.98852 0.0204964 4.63093 0.0893326Z" fill="#FFAE35"/>
<path d="M5.32872 22.7806C5.26423 22.8244 5.27009 22.8557 5.37561 22.9683C5.51631 23.1185 5.70976 23.0872 5.67459 22.9245C5.65114 22.7931 5.4401 22.7055 5.32872 22.7806Z" fill="#FFAE35"/>
<path d="M5.92679 23.3627C5.833 23.4816 6.09093 23.8132 6.23163 23.7569C6.3606 23.7069 6.3606 23.5066 6.22576 23.3814C6.09093 23.25 6.01472 23.25 5.92679 23.3627Z" fill="#FFAE35"/>
<path d="M6.51287 24.1761C6.45425 24.245 6.46011 24.3076 6.53046 24.4515C6.64184 24.683 6.77081 24.7394 6.88805 24.6142C7.0053 24.489 6.99944 24.4515 6.85288 24.2512C6.71805 24.0698 6.61253 24.0447 6.51287 24.1761Z" fill="#FFAE35"/>
<path d="M7.26327 25.0836C7.1343 25.1962 7.1343 25.2025 7.22809 25.3652C7.33361 25.5279 7.5681 25.6343 7.67362 25.5592C7.77328 25.4966 7.74983 25.2463 7.63845 25.1399C7.45086 24.9709 7.3981 24.9647 7.26327 25.0836Z" fill="#FFAE35"/>
<path d="M8.24807 25.7595C8.22462 25.7782 8.20703 25.8596 8.20703 25.9409C8.20703 26.0473 8.25979 26.0974 8.41221 26.1537C8.52945 26.1975 8.65842 26.21 8.70532 26.1913C8.83429 26.1412 8.81084 25.8596 8.68187 25.7782C8.5529 25.7094 8.30669 25.6969 8.24807 25.7595Z" fill="#FFAE35"/>
<path d="M10.6224 25.8533C10.4172 26.0723 10.6517 26.3226 10.9507 26.21C11.1559 26.1349 11.2321 25.991 11.1324 25.8658C11.0503 25.7594 10.7162 25.7532 10.6224 25.8533Z" fill="#FFAE35"/>
<path d="M9.54384 25.9472C9.4266 25.9785 9.36797 26.1161 9.41487 26.2476C9.49694 26.4791 10.0245 26.404 10.0245 26.1662C10.0245 25.9472 9.84281 25.8596 9.54384 25.9472Z" fill="#FFAE35"/>
</svg>
