<svg width="32" height="32" viewBox="0 0 32 32" fill="none" xmlns="http://www.w3.org/2000/svg">
<path d="M29.6957 1H2.30435C1.58398 1 1 1.58398 1 2.30435V29.6957C1 30.416 1.58398 31 2.30435 31H29.6957C30.416 31 31 30.416 31 29.6957V2.30435C31 1.58398 30.416 1 29.6957 1Z" stroke="#FFAE35" stroke-width="2" stroke-linecap="round" stroke-linejoin="round"/>
<path d="M14.6956 13.3914V23.8261" stroke="#FFAE35" stroke-width="2" stroke-linecap="round" stroke-linejoin="round"/>
<path d="M9.47827 13.3914V23.8261" stroke="#FFAE35" stroke-width="2" stroke-linecap="round" stroke-linejoin="round"/>
<path d="M14.6956 17.9566C14.6956 16.7458 15.1765 15.5846 16.0327 14.7285C16.8888 13.8723 18.05 13.3914 19.2608 13.3914C20.4715 13.3914 21.6327 13.8723 22.4889 14.7285C23.345 15.5846 23.826 16.7458 23.826 17.9566V23.8261" stroke="#FFAE35" stroke-width="2" stroke-linecap="round" stroke-linejoin="round"/>
<path d="M9.47825 10.1305C10.5588 10.1305 11.4348 9.25449 11.4348 8.17393C11.4348 7.09337 10.5588 6.21741 9.47825 6.21741C8.39769 6.21741 7.52173 7.09337 7.52173 8.17393C7.52173 9.25449 8.39769 10.1305 9.47825 10.1305Z" fill="#FFAE35"/>
</svg>
