<svg width="159" height="143" viewBox="0 0 159 143" fill="none" xmlns="http://www.w3.org/2000/svg">
<circle cx="60" cy="60" r="60" fill="#FFAE35" fill-opacity="0.9"/>
<circle cx="99" cy="83" r="60" fill="#FFAE35" fill-opacity="0.9"/>
<path d="M140 70C140 103.137 113.137 130 80 130C46.8629 130 20 103.137 20 70C20 36.8629 46.8629 10 80 10C113.137 10 140 36.8629 140 70Z" fill="#332F2E"/>
<path d="M59 63.3077L79 51L99 63.3077L79 75.6154L59 63.3077Z" stroke="#FFAE35" stroke-width="2" stroke-linecap="round" stroke-linejoin="round"/>
<path d="M89 91V69.4616L79 63.3077" stroke="#FFAE35" stroke-width="2" stroke-linecap="round" stroke-linejoin="round"/>
<path d="M94.3334 66.1731V76.6731C94.3322 76.9998 94.2386 77.3172 94.0667 77.5769C92.9501 79.3077 88.2167 85.6154 79.0001 85.6154C69.7834 85.6154 65.0501 79.3077 63.9334 77.5769C63.7616 77.3172 63.6679 76.9998 63.6667 76.6731V66.1731" stroke="#FFAE35" stroke-width="2" stroke-linecap="round" stroke-linejoin="round"/>
</svg>
